<?xml version="1.0" encoding="UTF-8"?>
<svg xmlns="http://www.w3.org/2000/svg" viewBox="0 0 981.77 234.54">
  <defs>
    <style>
      .cls-1 {
        fill: #fff;
      }
    </style>
  </defs>
  <g id="Layer_1" data-name="Layer 1">
    <g>
      <path d="M182.84,199.47c-9.35,0-17.91-2.51-25.67-7.52-7.76-5.01-13.94-11.74-18.55-20.18-4.61-8.44-6.91-17.8-6.91-28.11s2.3-19.58,6.91-28.06c4.61-8.47,10.79-15.21,18.55-20.23,7.76-5.01,16.31-7.52,25.67-7.52s18.01,2.51,25.77,7.52c7.76,5.02,13.94,11.76,18.55,20.23,4.61,8.47,6.91,17.82,6.91,28.06s-2.3,19.67-6.91,28.11c-4.61,8.44-10.79,15.16-18.55,20.18-7.76,5.02-16.35,7.52-25.77,7.52Zm0-93.42c-6.03,0-11.54,1.69-16.52,5.08-4.98,3.39-8.96,7.93-11.94,13.62-2.98,5.69-4.47,12-4.47,18.91s1.49,13.23,4.47,18.96c2.98,5.73,6.96,10.28,11.94,13.67,4.98,3.39,10.49,5.08,16.52,5.08s11.64-1.69,16.62-5.08c4.98-3.39,8.96-7.94,11.94-13.67,2.98-5.73,4.47-12.04,4.47-18.96s-1.49-13.21-4.47-18.91c-2.98-5.69-6.96-10.23-11.94-13.62-4.98-3.39-10.52-5.08-16.62-5.08Z"/>
      <path d="M305.43,89.29h19.11l-36.29,108.87h-19.11l-36.39-108.87h19.21l26.73,80.2,26.73-80.2Z"/>
      <path d="M415.22,152.71h-71.76c1.56,8.4,4.74,15.26,9.56,20.58,4.81,5.32,10.4,7.98,16.77,7.98,8.33,0,14.99-.71,19.97-2.13,4.98-1.42,8.42-3.01,10.32-4.78l12.2,13.42c-9.29,7.79-23.45,11.69-42.49,11.69-8.33,0-15.93-2.51-22.77-7.52-6.85-5.01-12.32-11.76-16.42-20.23-4.1-8.47-6.15-17.82-6.15-28.05s2.05-19.67,6.15-28.11c4.1-8.44,9.57-15.16,16.42-20.18,6.84-5.01,14.43-7.52,22.77-7.52,13.82,0,24.85,4.22,33.09,12.66,8.23,8.44,12.35,19.7,12.35,33.8v18.4Zm-71.76-18.09h53.57c0-6.17-.91-11.15-2.74-14.94-1.83-3.79-4.17-6.67-7.01-8.64-2.85-1.96-5.83-3.3-8.94-4.02-3.12-.71-5.96-1.07-8.54-1.07-6.37,0-11.96,2.68-16.77,8.03-4.81,5.35-8,12.23-9.56,20.63Z"/>
      <path d="M488.21,88.57v18.09h-18.2c-4.88,0-9.05,1.25-12.5,3.76-3.46,2.51-6.27,5.68-8.44,9.5-2.17,3.83-3.75,7.88-4.73,12.15-.98,4.27-1.47,8.27-1.47,11.99v54.08h-18.2V89.18h18.2v20.02c12.6-13.76,27.72-20.63,45.34-20.63Z"/>
      <path d="M507.03,171.01c0,1.56,.24,3.02,.71,4.37,.47,1.36,1.98,2.46,4.52,3.3,2.54,.85,6.83,1.27,12.86,1.27v18.2c-1.76,0-4.15-.08-7.17-.25-3.02-.17-6.19-.66-9.5-1.47-3.32-.81-6.47-2.19-9.45-4.12-2.98-1.93-5.42-4.61-7.32-8.03-1.9-3.42-2.85-7.84-2.85-13.27V52.9h18.2v118.12Z"/>
      <path d="M817.7,198.15h-22.67l-30.5-40.56-19.41,25.01v15.55h-18.2V52.9h18.2v100.12l49.6-63.73h22.97l-41.57,53.37,41.57,55.5Z"/>
      <path d="M908.78,152.71h-71.76c1.56,8.4,4.74,15.26,9.55,20.58,4.81,5.32,10.4,7.98,16.77,7.98,8.33,0,14.99-.71,19.97-2.13,4.98-1.42,8.42-3.01,10.32-4.78l12.2,13.42c-9.29,7.79-23.45,11.69-42.49,11.69-8.33,0-15.93-2.51-22.77-7.52-6.84-5.01-12.32-11.76-16.42-20.23-4.1-8.47-6.15-17.82-6.15-28.05s2.05-19.67,6.15-28.11c4.1-8.44,9.57-15.16,16.42-20.18,6.84-5.01,14.43-7.52,22.77-7.52,13.82,0,24.85,4.22,33.09,12.66,8.23,8.44,12.35,19.7,12.35,33.8v18.4Zm-71.76-18.09h53.57c0-6.17-.92-11.15-2.75-14.94-1.83-3.79-4.17-6.67-7.01-8.64-2.85-1.96-5.83-3.3-8.95-4.02-3.12-.71-5.96-1.07-8.54-1.07-6.37,0-11.96,2.68-16.77,8.03-4.81,5.35-8,12.23-9.55,20.63Z"/>
      <path d="M981.77,88.57v18.09h-18.2c-4.88,0-9.05,1.25-12.5,3.76-3.46,2.51-6.27,5.68-8.44,9.5-2.17,3.83-3.75,7.88-4.73,12.15-.98,4.27-1.47,8.27-1.47,11.99v54.08h-18.2V89.18h18.2v20.02c12.6-13.76,27.71-20.63,45.33-20.63Z"/>
    </g>
    <g>
      <path d="M570.28,199.47c-9.35,0-17.91-2.51-25.67-7.52-7.76-5.01-13.94-11.74-18.55-20.18-4.61-8.44-6.91-17.8-6.91-28.11s2.3-19.58,6.91-28.06c4.61-8.47,10.79-15.21,18.55-20.23,7.76-5.01,16.31-7.52,25.67-7.52s18.01,2.51,25.77,7.52c7.76,5.02,13.94,11.76,18.55,20.23,4.61,8.47,6.91,17.82,6.91,28.06s-2.3,19.67-6.91,28.11c-4.61,8.44-10.79,15.16-18.55,20.18-7.76,5.02-16.35,7.52-25.77,7.52Zm0-93.42c-6.03,0-11.54,1.69-16.52,5.08-4.98,3.39-8.96,7.93-11.94,13.62-2.98,5.69-4.47,11.99-4.47,18.91s1.49,13.23,4.47,18.96c2.98,5.73,6.96,10.28,11.94,13.67,4.98,3.39,10.49,5.08,16.52,5.08s11.64-1.69,16.62-5.08c4.98-3.39,8.96-7.94,11.94-13.67,2.98-5.73,4.47-12.04,4.47-18.96s-1.49-13.21-4.47-18.91c-2.98-5.69-6.96-10.23-11.94-13.62-4.98-3.39-10.52-5.08-16.62-5.08Z"/>
      <path d="M669.15,199.47c-9.35,0-17.91-2.51-25.67-7.52-7.76-5.01-13.94-11.74-18.55-20.18-4.61-8.44-6.91-17.8-6.91-28.11s2.3-19.58,6.91-28.06c4.61-8.47,10.79-15.21,18.55-20.23,7.76-5.01,16.31-7.52,25.67-7.52s18.01,2.51,25.77,7.52c7.76,5.02,13.94,11.76,18.55,20.23,4.61,8.47,6.91,17.82,6.91,28.06s-2.3,19.67-6.91,28.11c-4.61,8.44-10.79,15.16-18.55,20.18-7.76,5.02-16.35,7.52-25.77,7.52Zm0-93.42c-6.03,0-11.54,1.69-16.52,5.08-4.98,3.39-8.96,7.93-11.94,13.62-2.98,5.69-4.47,11.99-4.47,18.91s1.49,13.23,4.47,18.96c2.98,5.73,6.96,10.28,11.94,13.67,4.98,3.39,10.49,5.08,16.52,5.08s11.64-1.69,16.62-5.08c4.98-3.39,8.96-7.94,11.94-13.67,2.98-5.73,4.47-12.04,4.47-18.96s-1.49-13.21-4.47-18.91c-2.98-5.69-6.96-10.23-11.94-13.62-4.98-3.39-10.52-5.08-16.62-5.08Z"/>
    </g>
  </g>
  <g id="Layer_2" data-name="Layer 2">
    <ellipse cx="655.73" cy="163.7" rx="8.31" ry="8.43"/>
  </g>
  <g id="Layer_3" data-name="Layer 3">
    <ellipse cx="584.17" cy="163.7" rx="8.31" ry="8.43"/>
  </g>
  <g id="Layer_4" data-name="Layer 4">
    <g>
      <path class="cls-1" d="M0,197.09V0H111.4V197.09H0ZM.07,58.95c.5,4.13,.95,8.27,1.52,12.38,.74,5.35,1.22,10.77,2.46,16,3.06,12.98,6.18,26.01,11.67,38.22,4.67,10.4,9.86,20.59,15.25,30.64,2.38,4.43,5.87,8.25,8.81,12.38,6.78,9.5,15.32,17.06,25.43,22.82,4.32,2.46,8.84,4.66,13.89,5.11,8.39,.73,16.5-.51,24.34-3.69,4.02-1.63,8.73-8.88,7.04-13.58-4.18-11.56-7.83-23.31-11.84-34.94-2.13-6.18-9.81-9.47-15.81-7.16-4.73,1.82-9.55,3.41-14.3,5.2-2.31,.87-3.92,.22-5.23-1.77-2.64-4-5.68-7.78-7.94-11.99-3.47-6.46-6.72-13.08-9.51-19.86-3-7.32-4.75-15.02-5.82-22.92-.9-6.59-2.22-13.1-2.02-19.81,.07-2.18,.81-3.46,2.94-4.14,5.01-1.6,9.95-3.43,14.96-5.01,7.17-2.27,10.89-9.91,7.88-16.31-1.02-2.16-1.57-4.54-2.33-6.82-2.94-8.77-5.88-17.53-8.8-26.31-1.32-3.96-5.28-6.83-9.49-6.93-8.24-.19-15.38,3.17-21.72,7.76-7.81,5.66-12.76,13.8-16.17,22.75C1.84,39.93,.35,49.29,.07,58.95Z"/>
      <path d="M.07,58.95c.28-9.66,1.78-19.02,5.19-27.98,3.41-8.94,8.36-17.08,16.17-22.75C27.77,3.63,34.91,.28,43.15,.46c4.21,.09,8.17,2.96,9.49,6.93,2.92,8.77,5.87,17.54,8.8,26.31,.76,2.28,1.32,4.66,2.33,6.82,3.01,6.39-.71,14.04-7.88,16.31-5.01,1.59-9.95,3.41-14.96,5.01-2.13,.68-2.87,1.96-2.94,4.14-.2,6.71,1.12,13.22,2.02,19.81,1.08,7.9,2.82,15.6,5.82,22.92,2.78,6.78,6.04,13.4,9.51,19.86,2.26,4.2,5.3,7.99,7.94,11.99,1.31,1.99,2.92,2.64,5.23,1.77,4.75-1.78,9.57-3.37,14.3-5.2,6-2.31,13.68,.99,15.81,7.16,4.01,11.62,7.66,23.37,11.84,34.94,1.7,4.7-3.01,11.94-7.04,13.58-7.84,3.18-15.95,4.42-24.34,3.69-5.05-.44-9.57-2.65-13.89-5.11-10.11-5.76-18.65-13.32-25.43-22.82-2.94-4.13-6.43-7.96-8.81-12.38-5.4-10.05-10.58-20.24-15.25-30.64-5.49-12.21-8.6-25.24-11.67-38.22-1.24-5.24-1.71-10.65-2.46-16-.57-4.12-1.02-8.26-1.52-12.38Z"/>
    </g>
  </g>
</svg>